HIERARCHY
ROOT hip
{
	OFFSET 0.000000 0.000000 0.000000
	CHANNELS 6 Xposition Yposition Zposition Xrotation Zrotation Yrotation 
	JOINT abdomen
	{
		OFFSET 0.000000 3.422050 0.000000
		CHANNELS 3 Xrotation Zrotation Yrotation 
		JOINT chest
		{
			OFFSET 0.000000 8.486693 -0.684411
			CHANNELS 3 Xrotation Zrotation Yrotation 
			JOINT neck
			{
				OFFSET 0.000000 10.266162 -0.273764
				CHANNELS 3 Xrotation Zrotation Yrotation 
				JOINT head
				{
					OFFSET 0.000000 3.148285 0.000000
					CHANNELS 3 Xrotation Zrotation Yrotation 
					End Site
					{
						OFFSET 0.000000 3.148289 0.000000
					}
				}
			}
			JOINT lCollar
			{
				OFFSET 3.422053 6.707223 -0.821293
				CHANNELS 3 Yrotation Zrotation Xrotation 
				JOINT lShldr
				{
					OFFSET 3.285171 0.000000 0.000000
					CHANNELS 3 Zrotation Yrotation Xrotation 
					JOINT lForeArm
					{
						OFFSET 10.129278 0.000000 0.000000
						CHANNELS 3 Yrotation Zrotation Xrotation 
						JOINT lHand
						{
							OFFSET 8.486692 0.000000 0.000000
							CHANNELS 3 Zrotation Yrotation Xrotation 
							End Site
							{
								OFFSET 4.106464 0.000000 0.000000
							}
						}
					}
				}
			}
			JOINT rCollar
			{
				OFFSET -3.558935 6.707223 -0.821293
				CHANNELS 3 Yrotation Zrotation Xrotation 
				JOINT rShldr
				{
					OFFSET -3.148289 0.000000 0.000000
					CHANNELS 3 Zrotation Yrotation Xrotation 
					JOINT rForeArm
					{
						OFFSET -10.266159 0.000000 0.000000
						CHANNELS 3 Yrotation Zrotation Xrotation 
						JOINT rHand
						{
							OFFSET -8.349810 0.000000 0.000000
							CHANNELS 3 Zrotation Yrotation Xrotation 
							End Site
							{
								OFFSET -4.106464 0.000000 0.000000
							}
						}
					}
				}
			}
		}
	}
	JOINT lThigh
	{
		OFFSET 5.338403 -1.642589 1.368821
		CHANNELS 3 Xrotation Zrotation Yrotation 
		JOINT lShin
		{
			OFFSET -2.053232 -20.121670 0.000000
			CHANNELS 3 Xrotation Zrotation Yrotation 
			JOINT lFoot
			{
				OFFSET 0.000000 -19.300380 -1.231939
				CHANNELS 3 Xrotation Yrotation Zrotation 
				End Site
				{
					OFFSET 0.000000 -2.463878 4.653993
				}
			}
		}
	}
	JOINT rThigh
	{
		OFFSET -5.338403 -1.642589 1.368821
		CHANNELS 3 Xrotation Zrotation Yrotation 
		JOINT rShin
		{
			OFFSET 2.053232 -20.121670 0.000000
			CHANNELS 3 Xrotation Zrotation Yrotation 
			JOINT rFoot
			{
				OFFSET 0.000000 -19.300380 -1.231939
				CHANNELS 3 Xrotation Yrotation Zrotation 
				End Site
				{
					OFFSET 0.000000 -2.463878 4.653993
				}
			}
		}
	}
}
MOTION
Frames: 8
Frame Time: 0.049989
0.000000 43.528500 0.000000 0.000000 0.000000 0.000000 0.000000 0.000000 0.000000 0.000000 0.000000 0.000000 0.000000 0.000000 0.000000 0.000000 0.000000 0.000000 0.000000 0.000000 0.000000 0.000000 0.000000 0.000000 0.000000 0.000000 0.000000 0.000000 0.000000 0.000000 0.000000 0.000000 0.000000 0.000000 0.000000 0.000000 0.000000 0.000000 0.000000 0.000000 0.000000 0.000000 0.000000 0.000000 0.000000 0.000000 0.000000 0.000000 0.000000 0.000000 0.000000 0.000000 0.000000 0.000000 0.000000 0.000000 0.000000 0.000000 0.000000 0.000000 
-38.000305 5.996777 0.000000 -94.004440 0.000000 0.000000 -0.550715 -0.124485 -0.071089 17.280102 -0.597925 -0.616146 28.997015 0.000000 0.000000 17.998348 0.000000 0.000000 5.220785 23.296347 -1.750697 32.197239 -0.163881 -1.683468 -94.767326 -13.345096 -0.979156 -31.590090 -20.251591 -40.942070 -5.224659 -23.299866 -1.751675 -32.200829 0.160470 -1.682507 94.761406 13.342759 -0.975870 31.587488 20.247049 -40.943275 -41.946106 21.032799 -0.080516 132.725571 6.700544 -2.329384 2.934877 9.667858 17.639540 -31.449917 -24.337358 -1.589737 109.671371 8.825468 -0.971541 13.777433 6.998019 4.796927 
-38.000305 5.996777 0.000000 -94.004440 0.000000 0.000000 0.030173 -0.229339 -0.084135 16.434063 -0.598154 -0.618606 28.997015 0.000000 0.000000 18.932297 0.347303 -0.034997 4.894901 22.915140 -1.322803 32.677517 0.104160 -1.778908 -96.036674 -13.089928 -1.283418 -31.785126 -19.235292 -41.598480 -4.758113 -23.066790 -1.327223 -32.378735 0.159945 -1.705515 94.761406 13.342759 -0.975870 31.747747 19.954966 -41.233006 -41.877666 20.507244 -0.210736 132.725571 6.700544 -2.329384 2.979042 9.925788 17.088394 -31.679510 -23.610449 -1.004863 109.671371 8.825468 -0.971541 13.841026 6.641281 5.647800 
-38.000305 5.996777 0.000000 -94.004440 0.000000 0.000000 0.611259 -0.334086 -0.098248 15.587511 -0.598420 -0.621064 28.997015 0.000000 0.000000 19.866877 0.695422 -0.064352 4.572933 22.531616 -0.898342 33.157494 0.373062 -1.872125 -97.305023 -12.827917 -1.581888 -31.991514 -18.219805 -42.255463 -4.294148 -22.830492 -0.905475 -32.556644 0.159348 -1.728522 94.761414 13.342761 -0.975869 31.909298 19.663586 -41.523125 -41.808174 19.981701 -0.341217 132.725571 6.700544 -2.329384 3.025774 10.183366 16.536438 -31.899939 -22.880951 -0.425944 109.671379 8.825468 -0.971541 13.909949 6.285261 6.499093 
-38.000305 5.996777 0.000000 -94.004425 0.000000 0.000000 1.192518 -0.438710 -0.113427 14.740542 -0.598722 -0.623519 28.997011 0.000000 0.000000 20.801991 1.044211 -0.088041 4.254855 22.145819 -0.477291 33.637154 0.642793 -1.963107 -98.572014 -12.559240 -1.874350 -32.209171 -17.205519 -42.913296 -3.832790 -22.591017 -0.486460 -32.734558 0.158679 -1.751528 94.761406 13.342758 -0.975870 32.072163 19.372944 -41.813652 -41.737617 19.456194 -0.471971 132.725571 6.700543 -2.329384 3.075079 10.440551 15.983678 -32.111355 -22.149048 0.147206 109.671379 8.825468 -0.971541 13.984182 5.930086 7.350760 
-38.000305 5.996777 0.000000 -94.004440 0.000000 0.000000 1.773922 -0.543193 -0.129669 13.893247 -0.599060 -0.625970 28.997015 0.000000 0.000000 21.737587 1.393527 -0.106044 3.940650 21.757814 -0.059624 34.116486 0.913320 -2.051849 -99.837326 -12.284086 -2.160597 -32.437973 -16.192814 -43.572212 -3.374067 -22.348404 -0.070207 -32.912472 0.157940 -1.774531 94.761391 13.342757 -0.975870 32.236301 19.083038 -42.104553 -41.665997 18.930756 -0.603015 132.725571 6.700543 -2.329384 3.126958 10.697307 15.430123 -32.313908 -21.414915 0.714777 109.671371 8.825468 -0.971541 14.063704 5.575882 8.202752 
-38.000305 5.996777 0.000000 -94.004440 0.000000 0.000000 2.355443 -0.647520 -0.146974 13.045724 -0.599435 -0.628417 28.997015 0.000000 0.000000 22.673580 1.743223 -0.118345 3.630294 21.367655 0.354684 34.595505 1.184613 -2.138343 -101.100670 -12.002658 -2.440432 -32.677856 -15.182090 -44.232468 -2.918006 -22.102707 0.343259 -33.090385 0.157128 -1.797533 94.761406 13.342759 -0.975870 32.401733 18.793909 -42.395870 -41.593349 18.405422 -0.734362 132.725571 6.700544 -2.329384 3.181412 10.953590 14.875776 -32.507732 -20.678730 1.276948 109.671371 8.825468 -0.971541 14.148489 5.222777 9.055022 
-38.000305 5.996777 0.000000 -94.004440 0.000000 0.000000 2.937056 -0.751675 -0.165338 12.198056 -0.599845 -0.630858 28.997015 0.000000 0.000000 23.609907 2.093153 -0.124932 3.323764 20.975397 0.765659 35.074192 1.456638 -2.222579 -102.361748 -11.715168 -2.713670 -32.928719 -14.173723 -44.894268 -2.464630 -21.853960 0.753913 -33.268299 0.156246 -1.820532 94.761406 13.342759 -0.975870 32.568436 18.505560 -42.687572 -41.519630 17.880203 -0.866022 132.725571 6.700544 -2.329384 3.238445 11.209369 14.320655 -32.692989 -19.940683 1.833902 109.671371 8.825468 -0.971541 14.238508 4.870898 9.907525 
